<svg width="32" height="32" viewBox="0 0 32 32" fill="none" xmlns="http://www.w3.org/2000/svg">
<path d="M26.3606 24.3499L23.2963 21.2C24.7132 19.3366 25.482 17.0355 25.4792 14.6667C25.4792 12.557 24.8731 10.4947 23.7377 8.74059C22.6022 6.98646 20.9884 5.61929 19.1002 4.81196C17.2121 4.00462 15.1344 3.79339 13.1299 4.20496C11.1254 4.61654 9.28421 5.63244 7.83907 7.1242C6.39393 8.61596 5.40977 10.5166 5.01106 12.5857C4.61234 14.6548 4.81698 16.7995 5.59908 18.7486C6.38119 20.6977 7.70564 22.3636 9.40495 23.5357C11.1043 24.7077 13.1021 25.3333 15.1458 25.3333C17.4407 25.3363 19.6698 24.5427 21.475 23.08L24.5264 26.2432C24.6465 26.3682 24.7894 26.4674 24.9468 26.535C25.1042 26.6027 25.273 26.6376 25.4435 26.6376C25.614 26.6376 25.7829 26.6027 25.9403 26.535C26.0977 26.4674 26.2405 26.3682 26.3606 26.2432C26.4817 26.1192 26.5777 25.9718 26.6433 25.8093C26.7089 25.6468 26.7427 25.4725 26.7427 25.2965C26.7427 25.1205 26.7089 24.9462 26.6433 24.7838C26.5777 24.6213 26.4817 24.4738 26.3606 24.3499ZM7.39584 14.6667C7.39584 13.0844 7.85037 11.5377 8.70195 10.2221C9.55353 8.90652 10.7639 7.88114 12.18 7.27563C13.5962 6.67013 15.1544 6.51171 16.6578 6.82039C18.1611 7.12907 19.5421 7.891 20.6259 9.00982C21.7098 10.1286 22.4479 11.5541 22.7469 13.1059C23.046 14.6578 22.8925 16.2663 22.3059 17.7281C21.7193 19.1899 20.726 20.4394 19.4515 21.3184C18.177 22.1975 16.6786 22.6667 15.1458 22.6667C13.0904 22.6667 11.1192 21.8238 9.66576 20.3235C8.21235 18.8232 7.39584 16.7884 7.39584 14.6667Z" fill="#272727"/>
</svg>
